<svg
  width="200"
  height="120"
  viewBox="0 0 200 120"
  fill="none"
  xmlns="http://www.w3.org/2000/svg"
>
  <g clip-path="url(#clip0_1889_16317)">
    <rect width="200" height="120" rx="4" fill="white" />
    <path
      d="M21 25H178"
      stroke="#002033"
      stroke-opacity="0.08"
      stroke-width="2"
      stroke-dasharray="4 4"
    />
    <path
      d="M21 60H178"
      stroke="#002033"
      stroke-opacity="0.08"
      stroke-width="2"
      stroke-dasharray="4 4"
    />
    <path
      d="M21 94H178"
      stroke="#002033"
      stroke-opacity="0.08"
      stroke-width="2"
      stroke-dasharray="4 4"
    />
    <path d="M86 95L86 40L106 40L106 95L86 95Z" fill="#DEE4E8" />
    <path d="M41 95L41 48L61 48L61 95L41 95Z" fill="#DEE4E8" />
    <path d="M131 95L131 72L151 72L151 95L131 95Z" fill="#DEE4E8" />
    <path
      d="M21 91C32.9731 91 42.2481 47.7143 56.4135 48.2858C71.742 48.9042 78.6735 78.2857 89.4662 78.2857C104.475 78.2857 113.412 29.0721 127.578 29.0001C141.743 28.928 146.296 88.9999 158.944 88.9999C165.184 88.9999 170.917 70.2857 178 70.2857"
      stroke="#0078D2"
      stroke-width="2"
    />
  </g>
  <defs>
    <clipPath id="clip0_1889_16317">
      <rect width="200" height="120" rx="3" fill="white" />
    </clipPath>
  </defs>
</svg>
