<svg
  width="200"
  height="120"
  viewBox="0 0 200 120"
  fill="none"
  xmlns="http://www.w3.org/2000/svg"
>
  <g clip-path="url(#clip0_1889_16342)">
    <rect width="200" height="120" rx="4" fill="var(--color-bg-default)" />
    <path
      d="M155 85.5C155 78.2116 153.564 70.9946 150.775 64.2611C147.986 57.5275 143.898 51.4092 138.744 46.2556C133.591 41.1019 127.472 37.0138 120.739 34.2247C114.005 31.4355 106.788 30 99.5 30C92.2116 30 84.9946 31.4356 78.2611 34.2247C71.5275 37.0138 65.4092 41.1019 60.2556 46.2556C55.1019 51.4092 51.0138 57.5275 48.2247 64.2611C45.4355 70.9946 44 78.2116 44 85.5L55.1 85.5C55.1 79.6693 56.2484 73.8957 58.4797 68.5089C60.7111 63.122 63.9815 58.2274 68.1045 54.1045C72.2274 49.9815 77.122 46.7111 82.5089 44.4797C87.8957 42.2484 93.6693 41.1 99.5 41.1C105.331 41.1 111.104 42.2484 116.491 44.4797C121.878 46.7111 126.773 49.9815 130.896 54.1045C135.018 58.2274 138.289 63.122 140.52 68.5089C142.752 73.8957 143.9 79.6693 143.9 85.5H155Z"
      fill="var(--color-bg-system)"
    />
    <path
      d="M121.402 34.5043C112.96 30.8785 103.749 29.4054 94.5974 30.217C85.4455 31.0286 76.6382 34.0996 68.9658 39.1544C61.2934 44.2093 54.996 51.0899 50.6385 59.1787C46.2811 67.2676 44.0001 76.3118 44 85.4996L55.1 85.4997C55.1 78.1494 56.9249 70.9141 60.4108 64.443C63.8968 57.9719 68.9347 52.4674 75.0726 48.4235C81.2105 44.3797 88.2564 41.9228 95.5779 41.2736C102.9 40.6243 110.268 41.8028 117.022 44.7035L121.402 34.5043Z"
      fill="var(--color-bg-link)"
    />
    <path
      d="M108.742 60.9298L103.495 82.1319C102.798 84.9493 99.6861 86.4127 97.0713 85.153C94.4566 83.8932 93.6619 80.5478 95.4307 78.2467L108.742 60.9298Z"
      fill="var(--color-bg-link)"
    />
  </g>
  <defs>
    <clipPath id="clip0_1889_16342">
      <rect width="200" height="120" rx="3" fill="var(--color-bg-default)" />
    </clipPath>
  </defs>
</svg>
