<svg width="135" height="15" viewBox="0 0 135 15" fill="none"
  xmlns="http://www.w3.org/2000/svg">
  <g clip-path="url(#clip0)">
    <path fill-rule="evenodd" clip-rule="evenodd" d="M7.94689 11.25C9.15496 11.25 10.0987 11.022 10.7627 10.5075L12.9175 13.4483C11.5772 14.5253 9.74716 15 7.64124 15C3.20932 15 0 11.85 0 7.5C0 3.15 3.20932 0 7.64124 0C9.70819 0 11.5092 0.45675 12.8426 1.4925L10.7237 4.46325C10.062 3.96975 9.13204 3.75 7.94689 3.75C5.80734 3.75 4.43192 5.51175 4.43192 7.5C4.43192 9.48825 5.80734 11.25 7.94689 11.25ZM59.8072 4.18048C60.5423 3.92173 61.8229 3.59998 63.6515 3.59998C67.1665 3.59998 69.0004 5.39997 68.9996 7.49997C68.9996 7.60382 68.9917 7.70381 68.9762 7.80005H69.0004V14.7H65.4854V13.5081C64.8047 14.4058 63.6215 14.9999 62.2761 14.9999C59.9837 14.9999 58.4554 13.7999 58.4554 11.4375C58.4554 9.59995 59.8309 7.94995 62.2761 7.94995C63.9355 7.94995 65.4461 8.68079 65.4846 8.69958V8.39997C65.4778 7.04697 64.2567 6.37572 62.2753 6.59997C61.5914 6.67722 60.9549 6.79872 60.4315 6.98322L59.8072 4.18048ZM63.4987 12.375C62.5817 12.375 62.1232 11.925 62.1232 11.175C62.1232 10.425 62.7345 9.97495 63.4987 9.97495C64.3544 9.97495 64.8108 10.1056 65.3424 10.2578L65.4579 10.2907C65.4579 11.325 64.8741 12.375 63.4987 12.375ZM19.2628 3.59998C15.8946 3.59998 13.3026 5.99398 13.3026 9.29998C13.3026 12.606 15.8946 15 19.2628 15C22.6311 15 25.2176 12.606 25.223 9.29998C25.2283 5.99398 22.6311 3.59998 19.2628 3.59998ZM19.2559 11.7C17.9569 11.7 17.04 10.725 17.04 9.29998C17.04 7.94998 17.9569 6.89998 19.2559 6.89998C20.5549 6.89998 21.4719 7.94998 21.4719 9.29998C21.4719 10.65 20.5549 11.7 19.2559 11.7ZM29.9536 5.22073C30.7499 4.29073 31.9564 3.59998 33.2394 3.59998C35.3789 3.59998 36.6779 5.09998 36.6779 7.04998V14.7H33.163V12.3V10.5V8.39998H33.1591C33.1186 7.56523 32.4187 6.89998 31.5583 6.89998C30.6979 6.89998 29.998 7.56523 29.9575 8.39998H29.9536V9.42598V12.3V14.7H26.4387V3.89998H29.9536V5.22073ZM56.6827 11.3445C56.1929 11.5635 55.6465 11.7 55.1697 11.7C53.8707 11.7 53.183 11.1 53.183 10.0725L53.1831 10.0683L53.1834 10.0612L53.1836 10.0557L53.1838 10.05H53.183V8.53198V6.97498V6.90002H56.3923L56.5451 3.90002H53.183V0.974976H49.668V11.85H49.6711C49.7299 13.7025 51.2521 15 53.9853 15C55.5747 15 56.9287 14.4667 57.6554 14.1112L56.6827 11.3445ZM58.2264 13.8C58.2264 13.8 58.2149 13.8067 58.1956 13.8187L58.2026 13.7347L58.2264 13.8ZM39.1231 11.4L37.9005 13.5C39.4112 14.5365 41.1924 15 43.2456 15.0007C46.1126 15.0007 47.9128 13.6252 47.9128 11.2537V11.214C47.9128 8.98123 46.3051 8.22373 43.6322 7.54647C42.5663 7.26748 42.3325 6.89997 42.3325 6.59998C42.3325 6.37498 42.5342 6.00147 42.9537 5.92947C43.8607 5.77498 45.3355 6.26248 46.4587 6.89997L47.7188 4.85548C46.4404 4.05823 44.7158 3.59998 42.9728 3.59998C40.2227 3.59998 38.3628 4.93498 38.3628 7.32673V7.36648C38.3628 9.61872 40.0095 10.3567 42.6824 11.034C43.7484 11.313 43.9371 11.7 43.9371 11.925C43.9371 12.15 43.7247 12.462 43.3029 12.5205C42.1796 12.675 40.4015 12.2175 39.1231 11.4Z" fill="#0078D2"/>
    <path fill-rule="evenodd" clip-rule="evenodd" d="M7.94689 11.25C9.15496 11.25 10.0987 11.022 10.7627 10.5075L12.9175 13.4483C11.5772 14.5253 9.74716 15 7.64124 15C3.20932 15 0 11.85 0 7.5C0 3.15 3.20932 0 7.64124 0C9.70819 0 11.5092 0.45675 12.8426 1.4925L10.7237 4.46325C10.062 3.96975 9.13204 3.75 7.94689 3.75C5.80734 3.75 4.43192 5.51175 4.43192 7.5C4.43192 9.48825 5.80734 11.25 7.94689 11.25ZM59.8072 4.18048C60.5423 3.92173 61.8229 3.59998 63.6515 3.59998C67.1665 3.59998 69.0004 5.39997 68.9996 7.49997C68.9996 7.60382 68.9917 7.70381 68.9762 7.80005H69.0004V14.7H65.4854V13.5081C64.8047 14.4058 63.6215 14.9999 62.2761 14.9999C59.9837 14.9999 58.4554 13.7999 58.4554 11.4375C58.4554 9.59995 59.8309 7.94995 62.2761 7.94995C63.9355 7.94995 65.4461 8.68079 65.4846 8.69958V8.39997C65.4778 7.04697 64.2567 6.37572 62.2753 6.59997C61.5914 6.67722 60.9549 6.79872 60.4315 6.98322L59.8072 4.18048ZM63.4987 12.375C62.5817 12.375 62.1232 11.925 62.1232 11.175C62.1232 10.425 62.7345 9.97495 63.4987 9.97495C64.3544 9.97495 64.8108 10.1056 65.3424 10.2578L65.4579 10.2907C65.4579 11.325 64.8741 12.375 63.4987 12.375ZM19.2628 3.59998C15.8946 3.59998 13.3026 5.99398 13.3026 9.29998C13.3026 12.606 15.8946 15 19.2628 15C22.6311 15 25.2176 12.606 25.223 9.29998C25.2283 5.99398 22.6311 3.59998 19.2628 3.59998ZM19.2559 11.7C17.9569 11.7 17.04 10.725 17.04 9.29998C17.04 7.94998 17.9569 6.89998 19.2559 6.89998C20.5549 6.89998 21.4719 7.94998 21.4719 9.29998C21.4719 10.65 20.5549 11.7 19.2559 11.7ZM29.9536 5.22073C30.7499 4.29073 31.9564 3.59998 33.2394 3.59998C35.3789 3.59998 36.6779 5.09998 36.6779 7.04998V14.7H33.163V12.3V10.5V8.39998H33.1591C33.1186 7.56523 32.4187 6.89998 31.5583 6.89998C30.6979 6.89998 29.998 7.56523 29.9575 8.39998H29.9536V9.42598V12.3V14.7H26.4387V3.89998H29.9536V5.22073ZM56.6827 11.3445C56.1929 11.5635 55.6465 11.7 55.1697 11.7C53.8707 11.7 53.183 11.1 53.183 10.0725L53.1831 10.0683L53.1834 10.0612L53.1836 10.0557L53.1838 10.05H53.183V8.53198V6.97498V6.90002H56.3923L56.5451 3.90002H53.183V0.974976H49.668V11.85H49.6711C49.7299 13.7025 51.2521 15 53.9853 15C55.5747 15 56.9287 14.4667 57.6554 14.1112L56.6827 11.3445ZM58.2264 13.8C58.2264 13.8 58.2149 13.8067 58.1956 13.8187L58.2026 13.7347L58.2264 13.8ZM39.1231 11.4L37.9005 13.5C39.4112 14.5365 41.1924 15 43.2456 15.0007C46.1126 15.0007 47.9128 13.6252 47.9128 11.2537V11.214C47.9128 8.98123 46.3051 8.22373 43.6322 7.54647C42.5663 7.26748 42.3325 6.89997 42.3325 6.59998C42.3325 6.37498 42.5342 6.00147 42.9537 5.92947C43.8607 5.77498 45.3355 6.26248 46.4587 6.89997L47.7188 4.85548C46.4404 4.05823 44.7158 3.59998 42.9728 3.59998C40.2227 3.59998 38.3628 4.93498 38.3628 7.32673V7.36648C38.3628 9.61872 40.0095 10.3567 42.6824 11.034C43.7484 11.313 43.9371 11.7 43.9371 11.925C43.9371 12.15 43.7247 12.462 43.3029 12.5205C42.1796 12.675 40.4015 12.2175 39.1231 11.4Z" fill="url(#paint0_linear)" style="mix-blend-mode:overlay"/>
    <path fill-rule="evenodd" clip-rule="evenodd" d="M85.0126 4.96723H87.2476C87.1238 4.19398 86.8847 3.50623 86.5316 2.90548C86.1786 2.30323 85.7316 1.79173 85.1921 1.37248C84.6527 0.953233 84.0444 0.634483 83.3689 0.416233C82.6927 0.197983 81.966 0.0892334 81.1874 0.0892334C79.922 0.0892334 78.7926 0.385483 77.7992 0.978733C76.8059 1.57198 76.0227 2.42023 75.4496 3.52423C74.8765 4.62823 74.5899 5.94898 74.5899 7.48648C74.5899 9.01948 74.8749 10.3387 75.4457 11.445C76.0158 12.5512 76.7982 13.4002 77.7916 13.9935C78.785 14.5867 79.9166 14.883 81.1874 14.883C81.9943 14.883 82.7393 14.7652 83.4224 14.5312C84.1056 14.2965 84.713 13.965 85.2456 13.536C85.7782 13.107 86.2153 12.5962 86.5569 12.003C86.8984 11.4097 87.1292 10.7595 87.2484 10.0515L85.0133 10.0447C84.9224 10.5045 84.7589 10.911 84.5228 11.265C84.2859 11.619 83.9986 11.9175 83.6593 12.1612C83.32 12.405 82.9418 12.5887 82.5238 12.7132C82.1058 12.837 81.6649 12.8992 81.2019 12.8992C80.3659 12.8992 79.614 12.693 78.9454 12.2805C78.2768 11.868 77.7503 11.2582 77.366 10.452C76.9816 9.64573 76.7891 8.65648 76.7891 7.48498C76.7891 6.32248 76.9816 5.33773 77.366 4.53148C77.7503 3.72523 78.2753 3.11323 78.9416 2.69623C79.6079 2.27923 80.3636 2.07073 81.2088 2.07073C81.6764 2.07073 82.1196 2.13373 82.5376 2.26048C82.9555 2.38723 83.3338 2.57473 83.6731 2.82298C84.0123 3.07123 84.2989 3.37348 84.5327 3.72973C84.7665 4.08598 84.927 4.49848 85.0126 4.96723ZM91.364 14.6849V8.27241C91.364 7.70016 91.4771 7.21191 91.704 6.80616C91.9309 6.40041 92.2435 6.09216 92.6423 5.88141C93.0412 5.67066 93.4936 5.56491 94.0002 5.56491C94.7406 5.56491 95.3183 5.78466 95.734 6.22266C96.1497 6.66141 96.3575 7.27641 96.3575 8.06841V14.6849H98.4994V7.81566C98.4994 6.91566 98.3427 6.16416 98.0302 5.56191C97.7177 4.95966 97.2783 4.50591 96.7121 4.20141C96.1466 3.89691 95.4856 3.74466 94.7315 3.74466C93.8764 3.74466 93.1841 3.91566 92.6538 4.25766C92.1235 4.59966 91.73 5.06166 91.4717 5.64291H91.3357V0.284912H89.2221V14.6849H91.364ZM104.062 14.9235C103.365 14.9235 102.734 14.796 102.171 14.5403C101.607 14.2845 101.162 13.9132 100.835 13.4258C100.508 12.9383 100.345 12.3405 100.345 11.6325C100.345 11.0235 100.464 10.5218 100.703 10.128C100.941 9.73425 101.264 9.42225 101.67 9.19275C102.076 8.96325 102.53 8.78925 103.031 8.67225C103.533 8.55525 104.044 8.466 104.564 8.40525C105.223 8.33025 105.758 8.268 106.169 8.21925C106.579 8.16975 106.878 8.0895 107.064 7.977C107.251 7.8645 107.344 7.6815 107.344 7.42875V7.37925C107.344 6.765 107.168 6.2895 106.818 5.952C106.467 5.6145 105.945 5.44575 105.253 5.44575C104.531 5.44575 103.964 5.60175 103.551 5.913C103.138 6.225 102.853 6.57075 102.695 6.95025L100.682 6.50025C100.921 5.844 101.271 5.313 101.732 4.908C102.192 4.50225 102.723 4.2075 103.326 4.02225C103.928 3.837 104.56 3.74475 105.224 3.74475C105.663 3.74475 106.13 3.795 106.624 3.89625C107.119 3.99675 107.582 4.18125 108.014 4.44825C108.447 4.71525 108.801 5.09625 109.078 5.5905C109.354 6.08475 109.494 6.726 109.494 7.5135V14.685H107.401V13.2083H107.316C107.177 13.4798 106.97 13.7475 106.692 14.01C106.415 14.2725 106.06 14.4908 105.625 14.664C105.189 14.8373 104.669 14.9235 104.062 14.9235ZM104.528 13.236C105.12 13.236 105.627 13.1213 106.05 12.8918C106.472 12.6623 106.795 12.3608 107.017 11.988C107.239 11.6153 107.35 11.2155 107.35 10.7895V9.3975C107.274 9.4725 107.127 9.5415 106.909 9.60525C106.692 9.66825 106.445 9.72225 106.168 9.76725C105.891 9.8115 105.621 9.85125 105.359 9.8865C105.096 9.92175 104.877 9.951 104.7 9.97425C104.285 10.026 103.906 10.1123 103.565 10.2345C103.223 10.3568 102.951 10.5308 102.748 10.758C102.545 10.9853 102.444 11.2868 102.444 11.6618C102.444 12.1823 102.639 12.5745 103.031 12.8393C103.422 13.104 103.922 13.236 104.528 13.236ZM111.839 3.885V14.685H113.98V8.0895C113.98 7.6215 114.095 7.203 114.324 6.83475C114.554 6.4665 114.865 6.1785 115.259 5.97C115.652 5.7615 116.102 5.65725 116.609 5.65725C116.828 5.65725 117.048 5.67225 117.268 5.703C117.487 5.73375 117.641 5.76076 117.726 5.784V3.77325C117.622 3.759 117.477 3.74775 117.293 3.738C117.11 3.72825 116.951 3.72375 116.817 3.72375C116.172 3.72375 115.596 3.891 115.087 4.22625C114.579 4.5615 114.223 5.01975 114.023 5.601H113.909V3.885H111.839ZM124.867 3.88499V5.57249H122.61V11.514C122.61 11.922 122.672 12.228 122.796 12.4312C122.921 12.6345 123.081 12.7732 123.28 12.846C123.478 12.9187 123.694 12.9547 123.928 12.9547C124.1 12.9547 124.25 12.9427 124.379 12.9195C124.509 12.8962 124.609 12.8775 124.681 12.8632L125.067 14.6002C124.943 14.6467 124.766 14.6955 124.537 14.7442C124.308 14.793 124.021 14.8207 123.677 14.8252C123.113 14.8342 122.588 14.736 122.102 14.5297C121.615 14.3235 121.221 14.0047 120.919 13.5735C120.618 13.1422 120.468 12.6007 120.468 11.949V5.57249H118.856V3.88499H120.468V1.29749H122.61V3.88499H124.867ZM132.844 6.85873L134.785 6.52123C134.565 5.67748 134.114 5.00398 133.429 4.50148C132.746 3.99748 131.81 3.74548 130.621 3.74548C129.795 3.74548 129.062 3.88048 128.422 4.14973C127.781 4.41898 127.28 4.79248 126.917 5.27098C126.555 5.74873 126.373 6.30673 126.373 6.94423C126.373 7.71298 126.618 8.34823 127.107 8.84998C127.597 9.35098 128.355 9.71698 129.382 9.94648L131.245 10.347C131.771 10.464 132.161 10.638 132.416 10.8675C132.672 11.097 132.8 11.3805 132.8 11.718C132.8 12.135 132.59 12.4882 132.17 12.7762C131.749 13.065 131.189 13.209 130.486 13.209C129.841 13.209 129.319 13.074 128.918 12.8047C128.516 12.5355 128.251 12.1357 128.122 11.6062L126.052 11.9152C126.229 12.8715 126.706 13.608 127.485 14.1262C128.263 14.6445 129.269 14.9032 130.501 14.9032C131.389 14.9032 132.171 14.76 132.847 14.4742C133.522 14.1885 134.05 13.7932 134.43 13.2892C134.81 12.7852 134.999 12.2092 134.999 11.5627C134.999 10.7992 134.751 10.1782 134.254 9.69973C133.758 9.22123 133.003 8.86723 131.991 8.63773L130.243 8.24398C129.636 8.10298 129.196 7.92298 128.924 7.70248C128.652 7.48273 128.516 7.19173 128.516 6.83098C128.516 6.41398 128.72 6.07273 129.125 5.80798C129.532 5.54323 130.038 5.41048 130.644 5.41048C131.088 5.41048 131.458 5.48023 131.755 5.62123C132.05 5.76223 132.286 5.94223 132.46 6.16273C132.635 6.38323 132.763 6.61498 132.844 6.85873Z" fill="#002033" fill-opacity="0.6"/>
  </g>
  <defs>
    <linearGradient id="paint0_linear" x1="51.3662" y1="-23.3345" x2="16.1716" y2="38.0723" gradientUnits="userSpaceOnUse">
      <stop stop-color="white" stop-opacity="0.6"/>
      <stop offset="1" stop-color="white" stop-opacity="0"/>
    </linearGradient>
    <clipPath id="clip0">
      <rect width="135" height="15" fill="white"/>
    </clipPath>
  </defs>
</svg>
