<svg
  width="200"
  height="120"
  viewBox="0 0 200 120"
  fill="none"
  xmlns="http://www.w3.org/2000/svg"
>
  <path
    d="M141 59.5C141 68.9495 137.775 78.116 131.859 85.4841C125.942 92.8521 117.688 97.9803 108.462 100.021C99.2351 102.061 89.5884 100.892 81.1166 96.7062C72.6448 92.5203 65.8552 85.5686 61.8704 77.0004C57.8856 68.4322 56.9442 58.7606 59.2019 49.5848C61.4596 40.409 66.7811 32.2784 74.2867 26.5373C81.7922 20.7963 91.0323 17.7886 100.479 18.0116C109.926 18.2345 119.014 21.6748 126.24 27.7635L112.87 43.6317C109.257 40.5874 104.713 38.8673 99.9896 38.7558C95.2661 38.6443 90.6461 40.1481 86.8933 43.0187C83.1406 45.8892 80.4798 49.9545 79.3509 54.5424C78.2221 59.1303 78.6928 63.9661 80.6852 68.2502C82.6776 72.5343 86.0724 76.0102 90.3083 78.1031C94.5442 80.196 99.3675 80.7807 103.981 79.7604C108.594 78.7401 112.721 76.176 115.679 72.492C118.638 68.808 120.25 64.2247 120.25 59.5H141Z"
    fill="#DEE4E8"
  />
  <path
    d="M99.5 18C106.472 18 113.332 19.7566 119.446 23.1076C125.56 26.4585 130.731 31.2959 134.482 37.173C138.233 43.0501 140.443 49.7776 140.908 56.7342C141.372 63.6908 140.077 70.6524 137.141 76.9762C134.205 83.3 129.723 88.7821 124.109 92.9165C118.495 97.0508 111.929 99.7041 105.019 100.631C98.1091 101.559 91.0767 100.73 84.5713 98.2219C78.0659 95.7138 72.2972 91.6071 67.7979 86.2811L83.649 72.8905C85.8986 75.5536 88.7829 77.6069 92.0356 78.8609C95.2883 80.115 98.8045 80.5293 102.26 80.0657C105.715 79.602 108.997 78.2754 111.804 76.2082C114.611 74.1411 116.852 71.4 118.32 68.2381C119.788 65.0762 120.436 61.5954 120.204 58.1171C119.972 54.6388 118.867 51.2751 116.991 48.3365C115.116 45.3979 112.53 42.9793 109.473 41.3038C106.416 39.6283 102.986 38.75 99.5 38.75V18Z"
    fill="#0078D2"
  />
</svg>
