<svg
  width="200"
  height="120"
  viewBox="0 0 200 120"
  fill="none"
  xmlns="http://www.w3.org/2000/svg"
>
  <g clip-path="url(#clip0_2423_26073)">
    <path
      d="M181 50.6897C172.622 50.6897 166.131 28.5894 156.219 28.8812C145.493 29.1969 140.642 44.1982 133.09 44.1982C122.588 44.1982 116.334 19.0713 106.421 19.0345C96.5089 18.9977 93.3227 49.6685 84.4724 49.6685C80.1063 49.6685 76.0941 40.1136 71.1379 40.1136"
      stroke="var(--color-bg-system)"
      stroke-width="0.931035"
    />
    <path
      d="M71.1377 51.6207C79.516 51.6207 86.0062 29.5204 95.9186 29.8122C106.645 30.1279 111.495 45.1292 119.047 45.1292C129.55 45.1292 135.804 20.0023 145.716 19.9655C155.629 19.9288 158.815 50.5995 167.665 50.5995C172.031 50.5995 176.044 41.0447 181 41.0447"
      stroke="var(--color-bg-link)"
      stroke-width="0.931035"
    />
    <path
      d="M51.5862 35.3276C51.5862 39.0375 50.3201 42.6363 47.9972 45.5291C45.6744 48.4218 42.4339 50.4351 38.8115 51.2363C35.1891 52.0374 31.4018 51.5783 28.0757 49.9349C24.7496 48.2915 22.084 45.5623 20.5195 42.1983C18.9551 38.8344 18.5855 35.0373 19.4719 31.4348C20.3582 27.8324 22.4475 24.6402 25.3942 22.3863C28.3409 20.1323 31.9686 18.9515 35.6775 19.039C39.3864 19.1266 42.9544 20.4772 45.7915 22.8677L40.5423 29.0976C39.1237 27.9024 37.3398 27.2271 35.4853 27.1833C33.6309 27.1395 31.817 27.73 30.3437 28.8569C28.8703 29.9839 27.8257 31.58 27.3825 33.3812C26.9393 35.1824 27.1241 37.081 27.9063 38.763C28.6886 40.4449 30.0214 41.8096 31.6844 42.6313C33.3474 43.453 35.2411 43.6825 37.0523 43.2819C38.8635 42.8814 40.4837 41.8747 41.6452 40.4283C42.8066 38.982 43.4397 37.1825 43.4397 35.3276H51.5862Z"
      fill="var(--color-bg-system)"
    />
    <path
      d="M35.2931 19.0345C38.0304 19.0345 40.7236 19.7241 43.124 21.0397C45.5244 22.3553 47.5546 24.2545 49.0273 26.5619C50.5 28.8693 51.3676 31.5105 51.55 34.2417C51.7324 36.9729 51.2238 39.7061 50.0711 42.1888C48.9184 44.6716 47.1587 46.8239 44.9546 48.4471C42.7505 50.0702 40.173 51.1119 37.46 51.476C34.747 51.84 31.9861 51.5147 29.432 50.53C26.878 49.5453 24.6132 47.933 22.8467 45.842L29.0699 40.5848C29.9531 41.6303 31.0855 42.4364 32.3626 42.9288C33.6396 43.4211 35.0201 43.5838 36.3766 43.4018C37.733 43.2197 39.0218 42.6989 40.1239 41.8873C41.2259 41.0757 42.1057 39.9996 42.6821 38.7582C43.2584 37.5168 43.5128 36.1503 43.4215 34.7847C43.3303 33.4191 42.8965 32.0984 42.1602 30.9447C41.4239 29.7911 40.4087 28.8415 39.2085 28.1837C38.0083 27.5259 36.6618 27.181 35.2931 27.181V19.0345Z"
      fill="var(--color-bg-link)"
    />
    <path
      d="M25.5171 100.034L25.5171 75.8276C25.5171 75.3134 25.9339 74.8966 26.4481 74.8966L32.0343 74.8966C32.5485 74.8966 32.9654 75.3134 32.9654 75.8276L32.9654 100.034L25.5171 100.034Z"
      fill="var(--color-bg-link)"
    />
    <path
      d="M85.1035 100.034L85.1035 72.1035C85.1035 71.5893 85.5204 71.1724 86.0345 71.1724L90.6897 71.1724C91.2039 71.1724 91.6208 71.5893 91.6208 72.1035L91.6208 100.034L85.1035 100.034Z"
      fill="var(--color-bg-link)"
    />
    <path
      d="M145.621 100.034L145.621 78.6207C145.621 78.1065 146.037 77.6897 146.552 77.6897L151.207 77.6897C151.721 77.6897 152.138 78.1065 152.138 78.6207L152.138 100.034L145.621 100.034Z"
      fill="var(--color-bg-link)"
    />
    <path
      d="M56.2412 100.034L56.2412 92.5862C56.2412 92.072 56.658 91.6552 57.1722 91.6552L61.8274 91.6552C62.3416 91.6552 62.7585 92.072 62.7585 92.5862L62.7585 100.034L56.2412 100.034Z"
      fill="var(--color-bg-link)"
    />
    <path
      d="M114.896 100.034L114.896 90.7241C114.896 90.2099 115.313 89.7931 115.828 89.7931L121.414 89.7931C121.928 89.7931 122.345 90.2099 122.345 90.7241L122.345 100.034L114.896 100.034Z"
      fill="var(--color-bg-link)"
    />
    <path
      d="M174.483 100.034L174.483 87C174.483 86.4858 174.9 86.069 175.414 86.069L180.069 86.069C180.583 86.069 181 86.4858 181 87L181 100.034L174.483 100.034Z"
      fill="var(--color-bg-link)"
    />
    <path
      d="M19 100.034L19 83.2759C19 82.7617 19.4168 82.3448 19.931 82.3448L24.5862 82.3448C25.1004 82.3448 25.5172 82.7617 25.5172 83.2759L25.5172 100.034L19 100.034Z"
      fill="var(--color-bg-system)"
    />
    <rect
      x="19"
      y="100.966"
      width="0.931028"
      height="162"
      transform="rotate(-90 19 100.966)"
      fill="var(--color-control-typo-ghost)"
      fill-opacity="0.08"
    />
    <path
      d="M77.6553 100.034L77.6553 83.2759C77.6553 82.7617 78.0721 82.3448 78.5863 82.3448L84.1725 82.3448C84.6867 82.3448 85.1035 82.7617 85.1035 83.2759L85.1035 100.034L77.6553 100.034Z"
      fill="var(--color-bg-system)"
    />
    <path
      d="M138.172 100.034L138.172 83.2759C138.172 82.7617 138.589 82.3448 139.103 82.3448L144.69 82.3448C145.204 82.3448 145.621 82.7617 145.621 83.2759L145.621 100.034L138.172 100.034Z"
      fill="var(--color-bg-system)"
    />
    <path
      d="M48.793 100.034L48.793 72.1035C48.793 71.5893 49.2098 71.1724 49.724 71.1724L55.3102 71.1724C55.8244 71.1724 56.2412 71.5893 56.2412 72.1035L56.2412 100.034L48.793 100.034Z"
      fill="var(--color-bg-system)"
    />
    <path
      d="M108.379 100.034L108.379 72.1035C108.379 71.5893 108.796 71.1724 109.31 71.1724L113.966 71.1724C114.48 71.1724 114.897 71.5893 114.897 72.1035L114.897 100.034L108.379 100.034Z"
      fill="var(--color-bg-system)"
    />
    <path
      d="M167.035 100.034L167.035 72.1035C167.035 71.5893 167.452 71.1724 167.966 71.1724L173.552 71.1724C174.066 71.1724 174.483 71.5893 174.483 72.1035L174.483 100.034L167.035 100.034Z"
      fill="var(--color-bg-system)"
    />
  </g>
  <defs>
    <clipPath id="clip0_2423_26073">
      <rect width="200" height="120" rx="3" fill="var(--color-bg-default)" />
    </clipPath>
  </defs>
</svg>
